<svg width="24" height="24" viewBox="0 0 24 24" fill="none" xmlns="http://www.w3.org/2000/svg">
<path d="M20.5108 15.2077L18.7108 13.3977V8.9377C18.7347 7.28152 18.1587 5.67261 17.0889 4.40803C16.0192 3.14346 14.528 2.30863 12.8908 2.0577C11.9406 1.93256 10.9747 2.01151 10.0574 2.28927C9.14014 2.56703 8.29267 3.03722 7.57152 3.66846C6.85037 4.2997 6.27214 5.07747 5.8754 5.94989C5.47867 6.82231 5.27255 7.76931 5.2708 8.7277V13.3977L3.4708 15.2077C3.2447 15.4376 3.09138 15.729 3.03 16.0455C2.96861 16.362 3.00189 16.6896 3.12567 16.9873C3.24945 17.2851 3.45825 17.5397 3.72595 17.7194C3.99365 17.8991 4.30838 17.9959 4.6308 17.9977H7.9908V18.3377C8.03751 19.3529 8.48475 20.3082 9.23452 20.9942C9.98429 21.6803 10.9754 22.0411 11.9908 21.9977C13.0061 22.0411 13.9973 21.6803 14.7471 20.9942C15.4968 20.3082 15.9441 19.3529 15.9908 18.3377V17.9977H19.3508C19.6732 17.9959 19.9879 17.8991 20.2556 17.7194C20.5233 17.5397 20.7321 17.2851 20.8559 16.9873C20.9797 16.6896 21.013 16.362 20.9516 16.0455C20.8902 15.729 20.7369 15.4376 20.5108 15.2077ZM13.9908 18.3377C13.9353 18.8187 13.6964 19.2598 13.3239 19.569C12.9513 19.8782 12.4738 20.0318 11.9908 19.9977C11.5078 20.0318 11.0303 19.8782 10.6577 19.569C10.2852 19.2598 10.0463 18.8187 9.9908 18.3377V17.9977H13.9908V18.3377ZM5.5008 15.9977L6.6808 14.8177C6.86796 14.6316 7.01646 14.4104 7.11772 14.1667C7.21898 13.923 7.27101 13.6616 7.2708 13.3977V8.7277C7.27134 8.0531 7.41618 7.38642 7.69559 6.77241C7.975 6.15839 8.38252 5.61125 8.8908 5.1677C9.39221 4.71338 9.98637 4.37345 10.6321 4.17143C11.2779 3.96941 11.9599 3.91013 12.6308 3.9977C13.7873 4.18547 14.837 4.78471 15.5867 5.68508C16.3364 6.58544 16.7356 7.72633 16.7108 8.8977V13.3977C16.7093 13.6609 16.7597 13.9218 16.8593 14.1655C16.9588 14.4092 17.1054 14.6308 17.2908 14.8177L18.4808 15.9977H5.5008Z" fill="#FEFEFE"/>
</svg>
